# xmcd
#
# Track frame offsets:
#	150
#	15102
#	30845
#	45442
#	59817
#	72790
#	82872
#	96565
#	110792
#	125537
#	139545
#	152102
#	165080
#	185342
#	198707
#	211042
#	225742
#	239310
#
# Disc length: 3303 seconds
#
# Revision: 0
# Processed by: cddbd v1.4PL0 Copyright (c) Steve Scherf et al.
# Submitted via: EasyCDDAExtractor 4.6.0.1
#
DISCID=e30ce512
DTITLE=Tito Puente - Carnival
DYEAR=1999
DGENRE=Latin
TTITLE0=Mambiando
TTITLE1=La Bochinera
TTITLE2=Pata Pata
TTITLE3=Ran Kan Kan
TTITLE4=Que Lindo El Mambo
TTITLE5=Shing A Tin Tin
TTITLE6=Tito On Timbales
TTITLE7=Caravan
TTITLE8=Vete Pa La Luna
TTITLE9=Four Beat Mambo
TTITLE10=Picao Y Tostao
TTITLE11=Fiesta Con Puente
TTITLE12=Oye Como Va
TTITLE13=Mambolino
TTITLE14=Ricci Ricci
TTITLE15=Rumba En El Patio
TTITLE16=El Ray Del Timbal
TTITLE17=Algo Nuevo
EXTD=
EXTT0=
EXTT1=
EXTT2=
EXTT3=
EXTT4=
EXTT5=
EXTT6=
EXTT7=
EXTT8=
EXTT9=
EXTT10=
EXTT11=
EXTT12=
EXTT13=
EXTT14=
EXTT15=
EXTT16=
EXTT17=
PLAYORDER=
